# This file uses centimeters as units for non-parametric coordinates.

mtllib luna_arm_left.mtl
g default
v 0.978906 2.906543 -0.133074
v 1.052030 2.929960 -0.132294
v 0.950692 3.285188 -0.112143
v 1.006016 3.302052 -0.111584
v 0.999153 3.298313 -0.226395
v 1.062966 3.315177 -0.225835
v 1.073521 2.926139 -0.294857
v 1.161690 2.949632 -0.294077
v 1.184322 2.490642 -0.376975
v 1.277411 2.514263 -0.376164
v 1.140569 2.464323 -0.169231
v 1.056589 2.441636 -0.170042
v 1.413938 1.792653 -0.588625
v 1.507316 1.814838 -0.587549
v 1.312794 1.620509 -0.251419
v 1.221222 1.603101 -0.252283
v 1.699843 1.348384 -0.863070
v 1.793127 1.383819 -0.859327
v 1.572740 1.046628 -0.350523
v 1.472922 1.024122 -0.351920
v 2.379733 0.729263 -1.323253
v 2.461196 0.762018 -1.302259
v 2.369334 0.387425 -0.724135
v 2.258921 0.358641 -0.728983
v 2.668127 0.436782 -1.431841
v 2.763108 0.467028 -1.427890
v 2.683155 0.236729 -1.042685
v 2.581191 0.201389 -1.044124
v 2.854150 0.237090 -1.449103
v 2.917889 0.258165 -1.448503
v 2.887182 0.174439 -1.323382
v 2.822655 0.151673 -1.323982
v 0.946202 3.468212 -0.118392
v 0.976322 3.476517 -0.118117
v 1.002303 3.483323 -0.177361
v 0.970303 3.475017 -0.177636
v 1.940130 0.659799 -0.489574
v 2.141929 1.041133 -1.119653
v 2.052903 1.016671 -1.131895
v 1.830679 0.645274 -0.492671
v 1.549010 1.541066 -0.722442
v 1.430449 1.296701 -0.298378
v 1.699025 1.220052 -0.604497
v 1.335025 1.276297 -0.299402
v 1.485555 0.980254 -0.266226
v 1.570290 1.181424 -0.607923
v 1.965510 1.204987 -0.995981
v 2.132751 1.091630 -1.231549
v 1.873486 1.174626 -1.003204
v 1.743619 0.836704 -0.411238
v 2.057569 0.853715 -0.803335
v 1.638528 0.818789 -0.413331
v 1.850069 0.589809 -0.385347
v 1.925251 0.827724 -0.813561
v 2.438187 0.807742 -1.410456
v 2.619374 0.613297 -1.374862
v 2.729525 0.490712 -1.494276
v 2.530699 0.580711 -1.388237
v 2.431255 0.579850 -1.011044
v 2.538337 0.299510 -0.876095
v 2.739544 0.357344 -1.234838
v 2.296405 0.310932 -0.628860
v 2.430597 0.265571 -0.879418
v 2.618266 0.180251 -0.978994
v 2.303337 0.538824 -1.028272
v 2.608247 0.313620 -1.238432
v 2.876371 0.337347 -1.451957
v 2.786186 0.308515 -1.452768
v 2.820615 0.190777 -1.216129
v 2.728656 0.158141 -1.216940
v 0.987221 3.423582 -0.109238
v 0.942261 3.410730 -0.109664
v 1.027122 3.433887 -0.198945
v 0.977933 3.421035 -0.199371
v 2.159316 0.508780 -0.594584
v 2.304603 0.899053 -1.219468
v 2.221060 0.871400 -1.238192
v 2.048213 0.488550 -0.598977
v 0.998445 2.914979 -0.105720
v 1.026149 3.128609 -0.119938
v 0.969570 3.291433 -0.092822
v 0.961220 3.107907 -0.120624
v 0.954760 3.490256 -0.108880
v 0.989585 3.499537 -0.145459
v 0.985909 3.498699 -0.182374
v 0.951084 3.489418 -0.145794
v 1.039844 3.308932 -0.245157
v 1.110100 3.144604 -0.259182
v 1.134628 2.941157 -0.321431
v 1.032366 3.123903 -0.259869
v 2.910206 0.235821 -1.466523
v 2.935890 0.204584 -1.403965
v 2.877990 0.144517 -1.342218
v 2.852306 0.175753 -1.404776
v 1.120301 2.943705 -0.213056
v 1.044419 3.311425 -0.168617
v 1.012773 2.912431 -0.214095
v 0.964995 3.288939 -0.169362
v 1.210899 2.757722 -0.325612
v 1.252914 2.510698 -0.411058
v 1.118572 2.733349 -0.326422
v 1.088071 2.732814 -0.146650
v 1.223746 2.493152 -0.272562
v 1.008810 2.708748 -0.147461
v 1.076531 2.444734 -0.135147
v 1.105700 2.462280 -0.273643
v 1.380908 2.164641 -0.468112
v 1.492897 1.835736 -0.644126
v 1.287576 2.143128 -0.468922
v 1.215822 2.051635 -0.206262
v 1.425467 1.720973 -0.419322
v 1.127902 2.032317 -0.207073
v 1.234738 1.579815 -0.195812
v 1.302168 1.694578 -0.420616
v 1.642558 1.570833 -0.720568
v 1.783760 1.421223 -0.946195
v 0.980760 3.115592 -0.097073
v 0.965901 3.518534 -0.142734
v 1.084158 3.136920 -0.282733
v 2.924478 0.170660 -1.427678
v 1.080013 3.140057 -0.189446
v 0.984904 3.112455 -0.190361
v 1.184118 2.749661 -0.355844
v 1.163784 2.749305 -0.235996
v 1.029058 2.716656 -0.117228
v 1.049392 2.717012 -0.237077
v 1.361306 2.172536 -0.512159
v 1.313470 2.111541 -0.337052
v 1.144799 2.023324 -0.163026
v 1.192635 2.084320 -0.338133
v 1.631292 1.600858 -0.791941
v 1.552251 1.437948 -0.509232
v 1.347229 1.241591 -0.228454
v 1.426270 1.404501 -0.511163
v 1.957569 1.250150 -1.097477
v 1.870991 1.024869 -0.702833
v 1.653003 0.767403 -0.314399
v 1.739580 0.992685 -0.709044
v 2.590131 0.649415 -1.465515
v 2.595223 0.461947 -1.124087
v 2.469372 0.230130 -0.793791
v 2.464280 0.417597 -1.135219
v 2.840719 0.347677 -1.491667
v 2.863672 0.269184 -1.333908
v 2.765195 0.149713 -1.177230
v 2.742242 0.228206 -1.334989
v 0.958443 3.415438 -0.094500
v 1.015017 3.430877 -0.154020
v 1.008826 3.429179 -0.214109
v 0.952251 3.413740 -0.154589
v 2.248180 0.707907 -0.905099
v 2.289343 0.949654 -1.334171
v 2.118416 0.675985 -0.920511
v 2.077253 0.434238 -0.491439
vt 0.375000 0.000000
vt 0.375000 1.000000
vt 0.625000 0.000000
vt 0.625000 1.000000
vt 0.375000 0.250000
vt 0.625000 0.250000
vt 0.375000 0.500000
vt 0.125000 0.250000
vt 0.625000 0.500000
vt 0.875000 0.250000
vt 0.375000 0.750000
vt 0.125000 0.000000
vt 0.625000 0.750000
vt 0.875000 0.000000
vt 0.406250 0.781250
vt 0.593750 0.781250
vt 0.593750 0.968750
vt 0.406250 0.968750
vt 0.406250 0.781250
vt 0.593750 0.781250
vt 0.593750 0.968750
vt 0.406250 0.968750
vt 0.406250 0.781250
vt 0.593750 0.781250
vt 0.593750 0.968750
vt 0.406250 0.968750
vt 0.406250 0.781250
vt 0.593750 0.781250
vt 0.593750 0.968750
vt 0.406250 0.968750
vt 0.406250 0.781250
vt 0.593750 0.781250
vt 0.593750 0.968750
vt 0.406250 0.968750
vt 0.430556 0.805556
vt 0.569444 0.805556
vt 0.569444 0.944444
vt 0.430556 0.944445
vt 0.430556 0.305556
vt 0.569444 0.305556
vt 0.569444 0.444444
vt 0.430556 0.444444
vt 0.593750 0.968750
vt 0.593750 0.781250
vt 0.406250 0.781250
vt 0.406250 0.968750
vt 0.500000 0.125000
vt 0.500000 0.375000
vt 0.500000 0.625000
vt 0.500000 0.875000
vt 0.750000 0.125000
vt 0.250000 0.125000
vt 0.500000 0.750000
vt 0.625000 0.875000
vt 0.500000 1.000000
vt 0.375000 0.875000
vt 0.500000 0.750000
vt 0.625000 0.875000
vt 0.500000 1.000000
vt 0.375000 0.875000
vt 0.500000 0.750000
vt 0.625000 0.875000
vt 0.500000 1.000000
vt 0.375000 0.875000
vt 0.500000 0.750000
vt 0.625000 0.875000
vt 0.500000 1.000000
vt 0.375000 0.875000
vt 0.500000 0.750000
vt 0.625000 0.875000
vt 0.500000 1.000000
vt 0.375000 0.875000
vt 0.500000 0.750000
vt 0.625000 0.875000
vt 0.500000 1.000000
vt 0.375000 0.875000
vt 0.500000 0.250000
vt 0.625000 0.375000
vt 0.500000 0.500000
vt 0.375000 0.375000
vt 0.625000 0.875000
vt 0.500000 0.750000
vt 0.375000 0.875000
vt 0.500000 1.000000
vt 0.500000 0.000000
vt 0.500000 1.000000
vt 0.625000 0.125000
vt 0.500000 0.218750
vt 0.375000 0.125000
vt 0.500000 0.281250
vt 0.593750 0.375000
vt 0.500000 0.468750
vt 0.406250 0.375000
vt 0.500000 0.531250
vt 0.625000 0.625000
vt 0.875000 0.125000
vt 0.500000 0.718750
vt 0.375000 0.625000
vt 0.125000 0.125000
vt 0.500000 0.781250
vt 0.593750 0.875000
vt 0.500000 0.968750
vt 0.406250 0.875000
vt 0.750000 0.000000
vt 0.625000 0.875000
vt 0.750000 0.250000
vt 0.625000 0.375000
vt 0.250000 0.000000
vt 0.375000 0.875000
vt 0.250000 0.250000
vt 0.375000 0.375000
vt 0.593750 0.781250
vt 0.500000 0.750000
vt 0.406250 0.781250
vt 0.593750 0.968750
vt 0.625000 0.875000
vt 0.406250 0.968750
vt 0.500000 1.000000
vt 0.375000 0.875000
vt 0.593750 0.781250
vt 0.500000 0.750000
vt 0.406250 0.781250
vt 0.593750 0.968750
vt 0.625000 0.875000
vt 0.406250 0.968750
vt 0.500000 1.000000
vt 0.375000 0.875000
vt 0.593750 0.781250
vt 0.500000 0.750000
vt 0.406250 0.781250
vt 0.593750 0.968750
vt 0.625000 0.875000
vt 0.406250 0.968750
vt 0.500000 1.000000
vt 0.375000 0.875000
vt 0.593750 0.781250
vt 0.500000 0.750000
vt 0.406250 0.781250
vt 0.593750 0.968750
vt 0.625000 0.875000
vt 0.406250 0.968750
vt 0.500000 1.000000
vt 0.375000 0.875000
vt 0.500000 0.750000
vt 0.593750 0.781250
vt 0.500000 0.750000
vt 0.406250 0.781250
vt 0.625000 0.875000
vt 0.593750 0.968750
vt 0.625000 0.875000
vt 0.500000 1.000000
vt 0.406250 0.968750
vt 0.500000 1.000000
vt 0.375000 0.875000
vt 0.375000 0.875000
vt 0.593750 0.781250
vt 0.406250 0.781250
vt 0.593750 0.968750
vt 0.406250 0.968750
vt 0.593750 0.281250
vt 0.406250 0.281250
vt 0.593750 0.468750
vt 0.406250 0.468750
vt 0.593750 0.968750
vt 0.593750 0.781250
vt 0.406250 0.781250
vt 0.406250 0.968750
vn -0.984610 -0.122541 -0.124609
vn -0.018569 -0.050827 0.998535
vn 0.021005 -0.034237 0.999193
vn -0.994906 -0.084011 -0.055717
vn 0.651464 0.055387 0.756655
vn 0.674906 0.050000 0.736208
vn 0.703443 0.072200 0.707075
vn 0.059544 -0.012091 0.998152
vn -0.996922 -0.070048 0.035221
vn -0.989749 0.104520 0.097323
vn -0.138341 0.428824 0.892733
vn -0.216170 0.975987 0.026844
vn -0.923820 0.169014 -0.343498
vn 0.666902 0.308665 0.678209
vn 0.821970 0.422560 0.381848
vn 0.866362 0.492982 -0.079908
vn -0.079271 0.599606 -0.796360
vn -0.733876 0.202490 -0.648401
vn -0.702635 0.018513 -0.711310
vn -0.046817 0.214606 -0.975578
vn -0.041536 0.190708 -0.980768
vn -0.681353 0.003498 -0.731947
vn 0.963130 0.267894 -0.024752
vn 0.969184 0.241309 0.049525
vn 0.966823 0.227499 0.116176
vn -0.037670 0.172475 -0.984293
vn -0.666287 -0.016474 -0.745514
vn -0.421669 -0.477160 -0.771047
vn 0.275613 -0.203269 -0.939532
vn 0.453118 -0.736193 -0.502697
vn -0.488275 -0.656888 -0.574531
vn 0.903769 0.420977 0.077329
vn 0.913788 0.256140 0.315252
vn 0.853455 -0.004036 0.521150
vn 0.381674 -0.916678 0.118435
vn -0.426422 -0.843615 -0.326310
vn 0.820945 0.110522 0.560209
vn 0.844899 0.111727 0.523129
vn 0.871869 0.136703 0.470273
vn -0.860419 -0.081225 -0.503072
vn -0.883143 -0.057562 -0.465558
vn -0.906269 -0.049511 -0.419791
vn -0.052296 0.183862 -0.981560
vn -0.672524 -0.029301 -0.739495
vn 0.956459 0.217657 0.194453
vn 0.939515 0.203173 0.275741
vn -0.069088 0.230352 -0.970652
vn -0.697206 -0.024752 -0.716443
vn 0.812122 0.113089 0.572423
vn 0.657391 0.064729 0.750764
vn 0.681965 0.061994 0.728753
vn 0.816107 0.104603 0.568355
vn 0.024239 -0.061991 0.997782
vn -0.972718 -0.154195 -0.173328
vn -0.958742 -0.148849 -0.242193
vn 0.051088 -0.066058 0.996507
vn -0.844114 -0.102459 -0.526284
vn -0.837198 -0.099295 -0.537811
vn -0.095047 0.281182 -0.954936
vn -0.726947 -0.033890 -0.685857
vn 0.917255 0.203206 0.342565
vn 0.885848 0.243479 0.394957
vn -0.139249 0.373512 -0.917114
vn -0.753258 -0.068688 -0.654129
vn 0.817774 0.112124 0.564511
vn 0.698301 0.073438 0.712027
vn 0.706271 0.116777 0.698244
vn 0.812195 0.156228 0.562078
vn -0.006109 -0.082178 0.996599
vn -0.938575 -0.157445 -0.307064
vn -0.913411 -0.208113 -0.349813
vn -0.076895 -0.125503 0.989109
vn -0.834640 -0.107441 -0.540215
vn -0.828188 -0.149654 -0.540100
vn -0.197496 0.467039 -0.861899
vn -0.763074 -0.135868 -0.631869
vn 0.841880 0.333614 0.424193
vn 0.793590 0.423563 0.436817
vn -0.196793 0.492049 -0.848033
vn -0.748834 -0.230537 -0.621369
vn 0.793623 0.243022 0.557766
vn 0.708785 0.196830 0.677408
vn 0.695058 0.292425 0.656797
vn 0.760142 0.341869 0.552549
vn -0.072060 -0.188480 0.979430
vn -0.869816 -0.297482 -0.393605
vn -0.808889 -0.402043 -0.429022
vn -0.027805 -0.252224 0.967269
vn -0.807557 -0.229482 -0.543314
vn -0.770662 -0.328188 -0.546236
vn -0.119535 0.531468 -0.838602
vn -0.724710 -0.317370 -0.611614
vn 0.755130 0.492172 0.433065
vn 0.723469 0.548918 0.418666
vn -0.040810 0.555425 -0.830564
vn -0.706241 -0.385112 -0.594064
vn 0.725043 0.426596 0.540673
vn 0.672707 0.377467 0.636383
vn 0.652730 0.440792 0.616154
vn 0.693557 0.495777 0.522670
vn 0.011040 -0.327239 0.944877
vn -0.743022 -0.499507 -0.445434
vn -0.690725 -0.574346 -0.439347
vn 0.022836 -0.446651 0.894417
vn -0.729045 -0.418535 -0.541593
vn -0.698691 -0.485734 -0.525256
vn -0.690257 -0.445830 -0.569895
vn 0.050827 0.461963 -0.885442
vn 0.109018 0.388486 -0.914983
vn -0.677633 -0.443583 -0.586555
vn 0.713313 0.603122 0.356971
vn 0.729700 0.605900 0.316895
vn 0.749194 0.605228 0.269086
vn 0.164538 0.286909 -0.943721
vn -0.642176 -0.439542 -0.628023
vn 0.694201 0.543459 0.471951
vn 0.720835 0.525753 0.451641
vn 0.685050 0.451349 0.571830
vn 0.741907 0.386006 0.548246
vn 0.777082 0.305797 0.550119
vn 0.734080 0.507675 0.450991
vn 0.202138 -0.561939 0.802100
vn 0.300720 -0.698576 0.649276
vn -0.657106 -0.646582 -0.387483
vn -0.664424 -0.655412 -0.359132
vn -0.641358 -0.686095 -0.343413
vn 0.351356 -0.789610 0.503056
vn -0.695012 -0.533637 -0.481861
vn -0.706807 -0.527350 -0.471515
vn -0.697126 -0.531344 -0.481341
vn 0.260427 0.182688 -0.948052
vn -0.565155 -0.440374 -0.697618
vn 0.799810 0.565218 0.202068
vn 0.760162 0.471898 0.446616
vn 0.795729 0.248011 0.552545
vn 0.425517 -0.791938 0.437915
vn -0.580417 -0.741071 -0.337537
vn -0.658341 -0.550654 -0.513193
vn 0.041217 0.062638 0.997185
vn -0.993894 -0.048003 0.099350
vn 0.710244 0.138056 0.690286
vn 0.881760 0.196860 0.428655
vn 0.942964 0.325445 -0.070033
vn -0.046992 0.285319 -0.957280
vn -0.717566 0.059912 -0.693909
vn -0.922221 -0.025653 -0.385811
vn 0.677774 0.539248 0.499834
vn 0.706373 0.588134 0.393873
vn 0.649447 0.472188 0.596035
vn 0.005545 0.523758 -0.851849
vn -0.694622 -0.431111 -0.575885
vn -0.686334 -0.524991 -0.503319
vn -0.662287 -0.621956 -0.417787
vn 0.083721 -0.519353 0.850449
s 1
g pCube2
usemtl initialShadingGroup
f 1/1/1 79/85/2 117/47/3 82/89/4
f 79/85/2 2/3/5 80/87/6 117/47/3
f 117/47/3 80/87/6 4/6/7 81/88/8
f 82/89/4 117/47/3 81/88/8 3/5/9
f 33/39/10 83/90/11 118/48/12 86/93/13
f 83/90/11 34/40/14 84/91/15 118/48/12
f 118/48/12 84/91/15 35/41/16 85/92/17
f 86/93/13 118/48/12 85/92/17 36/42/18
f 5/7/19 87/94/20 119/49/21 90/98/22
f 87/94/20 6/9/23 88/95/24 119/49/21
f 119/49/21 88/95/24 8/13/25 89/97/26
f 90/98/22 119/49/21 89/97/26 7/11/27
f 29/35/28 91/100/29 120/50/30 94/103/31
f 91/100/29 30/36/32 92/101/33 120/50/30
f 120/50/30 92/101/33 31/37/34 93/102/35
f 94/103/31 120/50/30 93/102/35 32/38/36
f 2/3/5 95/104/37 121/51/38 80/87/6
f 95/104/37 8/14/25 88/96/24 121/51/38
f 121/51/38 88/96/24 6/10/23 96/106/39
f 80/87/6 121/51/38 96/106/39 4/6/7
f 7/12/27 97/108/40 122/52/41 90/99/22
f 97/108/40 1/1/1 82/89/4 122/52/41
f 122/52/41 82/89/4 3/5/9 98/110/42
f 90/99/22 122/52/41 98/110/42 5/8/19
f 7/11/27 89/97/26 123/53/43 101/114/44
f 89/97/26 8/13/25 99/112/45 123/53/43
f 123/53/43 99/112/45 10/16/46 100/113/47
f 101/114/44 123/53/43 100/113/47 9/15/48
f 8/13/25 95/105/37 124/54/49 99/112/45
f 95/105/37 2/4/5 102/115/50 124/54/49
f 124/54/49 102/115/50 11/17/51 103/116/52
f 99/112/45 124/54/49 103/116/52 10/16/46
f 2/4/5 79/86/2 125/55/53 102/115/50
f 79/86/2 1/2/1 104/117/54 125/55/53
f 125/55/53 104/117/54 12/18/55 105/118/56
f 102/115/50 125/55/53 105/118/56 11/17/51
f 1/2/1 97/109/40 126/56/57 104/117/54
f 97/109/40 7/11/27 101/114/44 126/56/57
f 126/56/57 101/114/44 9/15/48 106/119/58
f 104/117/54 126/56/57 106/119/58 12/18/55
f 9/15/48 100/113/47 127/57/59 109/122/60
f 100/113/47 10/16/46 107/120/61 127/57/59
f 127/57/59 107/120/61 14/20/62 108/121/63
f 109/122/60 127/57/59 108/121/63 13/19/64
f 10/16/46 103/116/52 128/58/65 107/120/61
f 103/116/52 11/17/51 110/123/66 128/58/65
f 128/58/65 110/123/66 15/21/67 111/124/68
f 107/120/61 128/58/65 111/124/68 14/20/62
f 11/17/51 105/118/56 129/59/69 110/123/66
f 105/118/56 12/18/55 112/125/70 129/59/69
f 129/59/69 112/125/70 16/22/71 113/126/72
f 110/123/66 129/59/69 113/126/72 15/21/67
f 12/18/55 106/119/58 130/60/73 112/125/70
f 106/119/58 9/15/48 109/122/60 130/60/73
f 130/60/73 109/122/60 13/19/64 114/127/74
f 112/125/70 130/60/73 114/127/74 16/22/71
f 13/19/64 108/121/63 131/61/75 41/130/76
f 108/121/63 14/20/62 115/128/77 131/61/75
f 131/61/75 115/128/77 18/24/78 116/129/79
f 41/130/76 131/61/75 116/129/79 17/23/80
f 14/20/62 111/124/68 132/62/81 115/128/77
f 111/124/68 15/21/67 42/131/82 132/62/81
f 132/62/81 42/131/82 19/25/83 43/132/84
f 115/128/77 132/62/81 43/132/84 18/24/78
f 15/21/67 113/126/72 133/63/85 42/131/82
f 113/126/72 16/22/71 44/133/86 133/63/85
f 133/63/85 44/133/86 20/26/87 45/134/88
f 42/131/82 133/63/85 45/134/88 19/25/83
f 16/22/71 114/127/74 134/64/89 44/133/86
f 114/127/74 13/19/64 41/130/76 134/64/89
f 134/64/89 41/130/76 17/23/80 46/135/90
f 44/133/86 134/64/89 46/135/90 20/26/87
f 17/23/80 116/129/79 135/65/91 49/138/92
f 116/129/79 18/24/78 47/136/93 135/65/91
f 135/65/91 47/136/93 38/44/94 48/137/95
f 49/138/92 135/65/91 48/137/95 39/45/96
f 18/24/78 43/132/84 136/66/97 47/136/93
f 43/132/84 19/25/83 50/139/98 136/66/97
f 136/66/97 50/139/98 37/43/99 51/140/100
f 47/136/93 136/66/97 51/140/100 38/44/94
f 19/25/83 45/134/88 137/67/101 50/139/98
f 45/134/88 20/26/87 52/141/102 137/67/101
f 137/67/101 52/141/102 40/46/103 53/142/104
f 50/139/98 137/67/101 53/142/104 37/43/99
f 20/26/87 46/135/90 138/68/105 52/141/102
f 46/135/90 17/23/80 49/138/92 138/68/105
f 138/68/105 49/138/92 39/45/96 54/143/106
f 52/141/102 138/68/105 54/143/106 40/46/103
f 21/27/107 55/144/108 139/69/109 58/147/110
f 55/144/108 22/28/111 56/145/112 139/69/109
f 139/69/109 56/145/112 26/32/113 57/146/114
f 58/147/110 139/69/109 57/146/114 25/31/115
f 22/28/111 59/148/116 140/70/117 56/145/112
f 59/148/116 23/29/118 60/149/119 140/70/117
f 140/70/117 60/149/119 27/33/120 61/150/121
f 56/145/112 140/70/117 61/150/121 26/32/113
f 23/29/118 62/151/122 141/71/123 60/149/119
f 62/151/122 24/30/124 63/152/125 141/71/123
f 141/71/123 63/152/125 28/34/126 64/153/127
f 60/149/119 141/71/123 64/153/127 27/33/120
f 24/30/124 65/154/128 142/72/129 63/152/125
f 65/154/128 21/27/107 58/147/110 142/72/129
f 142/72/129 58/147/110 25/31/115 66/155/130
f 63/152/125 142/72/129 66/155/130 28/34/126
f 25/31/115 57/146/114 143/73/131 68/157/132
f 57/146/114 26/32/113 67/156/133 143/73/131
f 143/73/131 67/156/133 30/36/32 91/100/29
f 68/157/132 143/73/131 91/100/29 29/35/28
f 26/32/113 61/150/121 144/74/134 67/156/133
f 61/150/121 27/33/120 69/158/135 144/74/134
f 144/74/134 69/158/135 31/37/34 92/101/33
f 67/156/133 144/74/134 92/101/33 30/36/32
f 27/33/120 64/153/127 145/75/136 69/158/135
f 64/153/127 28/34/126 70/159/137 145/75/136
f 145/75/136 70/159/137 32/38/36 93/102/35
f 69/158/135 145/75/136 93/102/35 31/37/34
f 28/34/126 66/155/130 146/76/138 70/159/137
f 66/155/130 25/31/115 68/157/132 146/76/138
f 146/76/138 68/157/132 29/35/28 94/103/31
f 70/159/137 146/76/138 94/103/31 32/38/36
f 3/5/9 81/88/8 147/77/139 72/161/140
f 81/88/8 4/6/7 71/160/141 147/77/139
f 147/77/139 71/160/141 34/40/14 83/90/11
f 72/161/140 147/77/139 83/90/11 33/39/10
f 4/6/7 96/107/39 148/78/142 71/160/141
f 96/107/39 6/9/23 73/162/143 148/78/142
f 148/78/142 73/162/143 35/41/16 84/91/15
f 71/160/141 148/78/142 84/91/15 34/40/14
f 6/9/23 87/94/20 149/79/144 73/162/143
f 87/94/20 5/7/19 74/163/145 149/79/144
f 149/79/144 74/163/145 36/42/18 85/92/17
f 73/162/143 149/79/144 85/92/17 35/41/16
f 5/7/19 98/111/42 150/80/146 74/163/145
f 98/111/42 3/5/9 72/161/140 150/80/146
f 150/80/146 72/161/140 33/39/10 86/93/13
f 74/163/145 150/80/146 86/93/13 36/42/18
f 38/44/94 51/140/100 151/81/147 76/165/148
f 51/140/100 37/43/99 75/164/149 151/81/147
f 151/81/147 75/164/149 23/29/118 59/148/116
f 76/165/148 151/81/147 59/148/116 22/28/111
f 39/45/96 48/137/95 152/82/150 77/166/151
f 48/137/95 38/44/94 76/165/148 152/82/150
f 152/82/150 76/165/148 22/28/111 55/144/108
f 77/166/151 152/82/150 55/144/108 21/27/107
f 40/46/103 54/143/106 153/83/152 78/167/153
f 54/143/106 39/45/96 77/166/151 153/83/152
f 153/83/152 77/166/151 21/27/107 65/154/128
f 78/167/153 153/83/152 65/154/128 24/30/124
f 37/43/99 53/142/104 154/84/154 75/164/149
f 53/142/104 40/46/103 78/167/153 154/84/154
f 154/84/154 78/167/153 24/30/124 62/151/122
f 75/164/149 154/84/154 62/151/122 23/29/118
