# Blender v2.83.0 OBJ File: ''
# www.blender.org
v -0.128728 -0.564748 0.013618
v -0.144553 -0.552814 -0.013601
v -0.080532 -0.368083 -0.024739
v -0.064447 -0.379391 -0.001227
v -0.192113 -0.525538 0.010529
v -0.120749 -0.344663 -0.003962
v -0.060817 -0.186107 -0.014314
v -0.028554 -0.205078 -0.031387
v -0.012659 -0.214968 -0.012022
v 0.034462 -0.043390 -0.008769
v 0.031793 -0.020815 -0.018588
v 0.027193 0.009194 0.013532
v 0.034243 -0.021656 0.017367
v 0.008039 -0.028503 -0.009975
v 0.000349 -0.003094 0.015849
v -0.016151 -0.014688 0.046745
v 0.002802 -0.003932 0.051804
v 0.012045 -0.030017 0.048001
v -0.057763 -0.188712 0.097406
v -0.094024 -0.168744 0.114366
v -0.177052 -0.319636 0.152424
v -0.130802 -0.344558 0.131818
v -0.113918 -0.157858 0.094887
v -0.199172 -0.306825 0.128740
v -0.294396 -0.477707 0.164369
v -0.271490 -0.491440 0.191788
v -0.216852 -0.520517 0.167861
v -2.552488 -2.611659 1.284104
v -2.605994 -2.599321 1.299539
v -2.633907 -2.658240 1.262484
v -2.564192 -2.670877 1.242095
v -2.607583 -2.576857 1.281479
v -2.636159 -2.624113 1.238611
v -2.595570 -2.665725 1.162152
v -2.594358 -2.695669 1.181167
v -2.540129 -2.702307 1.164827
v -0.254999 -0.494787 0.086901
v -0.170350 -0.319705 0.061906
v -0.096060 -0.167006 0.039885
v -0.161045 -0.549467 0.091286
v -0.087234 -0.368013 0.065779
v -0.026518 -0.206815 0.043094
v -0.363908 -0.659549 0.226949
v -0.305326 -0.690950 0.200395
v -0.386582 -0.646336 0.196749
v -0.507613 -0.859067 0.247960
v -0.486138 -0.867407 0.282554
v -0.425462 -0.903151 0.251614
v -0.342185 -0.667295 0.111130
v -0.272742 -0.702568 0.026666
v -0.385834 -0.942797 0.051492
v -0.459719 -0.893837 0.149139
v -0.220282 -0.732291 -0.000064
v -0.203726 -0.743828 0.029959
v -0.312048 -0.983865 0.054888
v -0.329342 -0.977035 0.020425
v -0.242005 -0.724544 0.115755
v -0.355761 -0.950605 0.153839
v -0.670011 -1.158454 0.383243
v -0.606493 -1.204420 0.343705
v -0.689369 -1.162265 0.340076
v -0.893362 -1.459655 0.458276
v -0.876112 -1.442097 0.513260
v -0.810608 -1.502447 0.462172
v -0.635409 -1.231019 0.215475
v -0.554590 -1.313269 0.092053
v -0.748326 -1.695844 0.140218
v -0.834589 -1.571027 0.298625
v -0.493362 -1.357566 0.052425
v -0.476299 -1.352086 0.095502
v -0.666146 -1.733716 0.143785
v -0.683111 -1.753735 0.088965
v -0.527965 -1.285000 0.220192
v -0.724632 -1.624803 0.303602
v -1.065009 -1.627734 0.656852
v -0.999994 -1.704921 0.592529
v -1.081110 -1.654960 0.587729
v -1.270026 -1.792833 0.721432
v -1.254323 -1.757866 0.805430
v -1.190534 -1.848033 0.728130
v -1.022587 -1.806041 0.387072
v -0.936361 -1.972382 0.187861
v -1.130391 -2.173536 0.238696
v -1.214228 -1.974869 0.479141
v -0.869352 -2.045387 0.123075
v -0.851258 -2.013979 0.191734
v -1.041651 -2.218135 0.243083
v -1.061978 -2.258401 0.160241
v -0.911776 -1.867080 0.392854
v -1.102073 -2.041401 0.486531
v -1.461669 -1.874985 0.950417
v -1.398109 -1.967967 0.862339
v -1.477530 -1.917921 0.852377
v -1.685029 -2.028233 0.970370
v -1.666978 -1.980331 1.078455
v -1.607157 -2.071905 0.985029
v -1.424336 -2.116308 0.573153
v -1.342111 -2.329953 0.296445
v -1.570612 -2.448850 0.370089
v -1.642614 -2.231628 0.668494
v -1.270875 -2.418658 0.205952
v -1.247337 -2.371446 0.301574
v -1.470954 -2.488149 0.376255
v -1.499898 -2.538239 0.272417
v -1.308206 -2.177336 0.583215
v -1.524261 -2.286942 0.682377
v -1.986936 -2.261882 1.166701
v -2.025494 -2.172285 1.248553
v -2.207116 -2.284642 1.300488
v -2.165557 -2.365038 1.228144
v -2.055538 -2.212363 1.143614
v -2.241163 -2.313817 1.212264
v -2.412168 -2.416779 1.262254
v -2.376418 -2.400874 1.327231
v -2.329860 -2.467481 1.269115
v -2.063724 -2.397488 0.864574
v -2.248452 -2.467647 0.971839
v -2.044281 -2.599687 0.590732
v -2.227561 -2.639546 0.735171
v -2.382467 -2.661070 0.894060
v -2.411487 -2.529934 1.077194
v -1.991436 -2.690989 0.501399
v -2.177068 -2.722928 0.658212
v -1.947108 -2.652613 0.598854
v -2.134086 -2.696736 0.741823
v -2.294723 -2.718266 0.898750
v -2.333190 -2.730925 0.834858
v -1.953206 -2.465784 0.885378
v -2.135731 -2.539921 0.986862
v -2.298121 -2.601866 1.084895
v -2.514770 -2.509650 1.324019
v -2.471730 -2.560209 1.288333
v -2.549919 -2.511894 1.284674
v -2.551373 -2.581716 1.171483
v -2.526633 -2.668307 1.059531
v -2.483204 -2.720868 1.023901
v -2.447668 -2.720623 1.063300
v -2.446603 -2.648802 1.176437
v 0.011049 -0.090782 -0.031448
v 0.024857 -0.098682 -0.016216
v -0.014480 -0.076029 -0.018038
v -0.039948 -0.061647 0.024583
v -0.051639 -0.054981 0.067832
v -0.035838 -0.063377 0.083121
v -0.008316 -0.078624 0.069767
v 0.015157 -0.092511 0.027088
v -1.858760 -2.322084 0.764545
v -1.873930 -2.121774 1.065216
v -1.814981 -2.537441 0.468611
v -1.850183 -2.075140 1.176187
v -1.802117 -2.167024 1.086073
v -1.744324 -2.382275 0.783491
v -1.715139 -2.582479 0.476172
v -1.752899 -2.629220 0.371851
vt 0.769722 0.494906
vt 0.772575 0.497758
vt 0.759611 0.517424
vt 0.757096 0.514741
vt 0.934337 0.137013
vt 0.926877 0.138410
vt 0.920006 0.114661
vt 0.926356 0.113509
vt 0.913579 0.094122
vt 0.918678 0.093092
vt 0.747868 0.534352
vt 0.745650 0.531979
vt 0.732296 0.548448
vt 0.731465 0.551395
vt 0.725787 0.551209
vt 0.728341 0.548370
vt 0.907093 0.070617
vt 0.905727 0.073695
vt 0.901188 0.072925
vt 0.901311 0.069174
vt 0.898004 0.076122
vt 0.896614 0.073551
vt 0.722829 0.546113
vt 0.725829 0.544589
vt 0.733081 0.524212
vt 0.728142 0.522092
vt 0.735299 0.502019
vt 0.741434 0.504884
vt 0.894531 0.099403
vt 0.898245 0.098690
vt 0.900616 0.120671
vt 0.896335 0.121740
vt 0.903620 0.145639
vt 0.898951 0.146936
vt 0.743990 0.479459
vt 0.751121 0.483004
vt 0.801376 0.078933
vt 0.798542 0.072696
vt 0.806778 0.068532
vt 0.809757 0.076798
vt 0.830050 0.569791
vt 0.832287 0.566859
vt 0.838733 0.571935
vt 0.837260 0.577090
vt 0.850213 0.571287
vt 0.850380 0.575851
vt 0.817813 0.073563
vt 0.819273 0.080341
vt 0.914268 0.142093
vt 0.909511 0.117720
vt 0.905358 0.096505
vt 0.761247 0.489174
vt 0.749955 0.509939
vt 0.739898 0.528118
vt 0.753113 0.457727
vt 0.760750 0.461640
vt 0.906783 0.170143
vt 0.901886 0.171453
vt 0.909719 0.201787
vt 0.904536 0.202693
vt 0.763531 0.429866
vt 0.771870 0.433828
vt 0.918717 0.166379
vt 0.932727 0.162435
vt 0.940306 0.195296
vt 0.923960 0.198655
vt 0.940925 0.160818
vt 0.781684 0.474978
vt 0.784951 0.477840
vt 0.797528 0.447593
vt 0.801434 0.450208
vt 0.949408 0.193695
vt 0.772107 0.468600
vt 0.785600 0.441060
vt 0.776240 0.388611
vt 0.786044 0.392478
vt 0.911889 0.248162
vt 0.905880 0.248082
vt 0.910365 0.296423
vt 0.902822 0.295206
vt 0.785995 0.344427
vt 0.797747 0.348136
vt 0.931133 0.247063
vt 0.952459 0.245536
vt 0.963998 0.298753
vt 0.936139 0.297942
vt 0.963182 0.244242
vt 0.821845 0.405667
vt 0.827113 0.407580
vt 0.846492 0.360862
vt 0.853710 0.361963
vt 0.976803 0.297864
vt 0.804830 0.399532
vt 0.822958 0.355043
vt 0.787224 0.307791
vt 0.801148 0.311280
vt 0.902047 0.333764
vt 0.892626 0.331685
vt 0.889632 0.365752
vt 0.878258 0.362925
vt 0.783524 0.274705
vt 0.799274 0.278287
vt 0.934593 0.337757
vt 0.969201 0.341091
vt 0.969050 0.376996
vt 0.928348 0.371706
vt 0.984208 0.340740
vt 0.863069 0.324086
vt 0.872376 0.324528
vt 0.873242 0.291885
vt 0.884542 0.291672
vt 0.986062 0.376864
vt 0.832950 0.318259
vt 0.837051 0.285709
vt 0.778790 0.241230
vt 0.795387 0.245485
vt 0.875926 0.398002
vt 0.862661 0.394422
vt 0.862621 0.428704
vt 0.848043 0.424439
vt 0.774521 0.209615
vt 0.791185 0.214099
vt 0.919467 0.404884
vt 0.964674 0.410789
vt 0.955776 0.443450
vt 0.908563 0.436660
vt 0.983037 0.410133
vt 0.878746 0.261000
vt 0.891761 0.260121
vt 0.879959 0.229563
vt 0.894130 0.227990
vt 0.974681 0.442511
vt 0.837702 0.254010
vt 0.836034 0.222743
vt 0.787299 0.158818
vt 0.772183 0.156435
vt 0.775164 0.130022
vt 0.788762 0.133026
vt 0.828495 0.477045
vt 0.842299 0.482089
vt 0.834837 0.509402
vt 0.823280 0.504681
vt 0.830284 0.535168
vt 0.821626 0.531259
vt 0.780894 0.105526
vt 0.792219 0.109512
vt 0.883209 0.493717
vt 0.869917 0.518734
vt 0.924834 0.504588
vt 0.905838 0.527448
vt 0.885249 0.546403
vt 0.857221 0.540869
vt 0.942156 0.505769
vt 0.921364 0.528951
vt 0.883632 0.160921
vt 0.870375 0.164184
vt 0.859586 0.137537
vt 0.870839 0.134356
vt 0.845822 0.114330
vt 0.854338 0.111208
vt 0.898165 0.547897
vt 0.829203 0.162472
vt 0.824651 0.136389
vt 0.819598 0.113125
vt 0.789124 0.085655
vt 0.797206 0.089649
vt 0.829995 0.556412
vt 0.823993 0.553986
vt 0.846087 0.559767
vt 0.863364 0.563013
vt 0.872689 0.564884
vt 0.830139 0.092689
vt 0.835397 0.089154
vt 0.814245 0.092289
vt 0.738844 0.545862
vt 0.737168 0.543813
vt 0.908845 0.079735
vt 0.912769 0.078608
vt 0.902631 0.081632
vt 0.897205 0.083278
vt 0.894230 0.083467
vt 0.727444 0.537945
vt 0.723625 0.536575
vt 0.732735 0.540850
vt 0.896262 0.466292
vt 0.851477 0.455945
vt 0.941981 0.475684
vt 0.772153 0.182160
vt 0.788304 0.185532
vt 0.836679 0.451119
vt 0.833095 0.191746
vt 0.877136 0.196096
vt 0.960495 0.475693
vt 0.891370 0.193525
vn 0.9310 -0.3045 0.2012
vn 0.0431 -0.0718 -0.9965
vn 0.0200 -0.0911 -0.9956
vn 0.9408 -0.3224 0.1043
vn -0.5881 0.1903 -0.7861
vn -0.6141 0.1788 -0.7687
vn -0.6338 0.1974 -0.7479
vn 0.0161 -0.0357 -0.9992
vn 0.9494 -0.3136 -0.0179
vn 0.9843 -0.1208 -0.1289
vn 0.3800 0.4467 -0.8100
vn 0.4572 0.8885 -0.0389
vn 0.9276 0.0231 0.3729
vn -0.5495 0.4118 -0.7270
vn -0.6268 0.6471 -0.4340
vn -0.6934 0.7065 0.1417
vn 0.2273 0.6665 0.7100
vn 0.7344 0.0243 0.6783
vn 0.6449 -0.1211 0.7546
vn 0.0459 0.2300 0.9721
vn 0.0349 0.2171 0.9755
vn 0.6204 -0.1308 0.7733
vn -0.8729 0.4876 0.0182
vn -0.8758 0.4720 -0.1008
vn -0.8692 0.4504 -0.2041
vn 0.0219 0.1993 0.9797
vn 0.6018 -0.1457 0.7853
vn 0.2844 -0.5562 0.7809
vn -0.3126 -0.3070 0.8989
vn -0.5785 -0.6665 0.4702
vn 0.2370 -0.7746 0.5863
vn -0.6445 0.7099 -0.2841
vn -0.7515 0.5113 -0.4168
vn -0.8197 0.0633 -0.5692
vn -0.5632 -0.8250 -0.0478
vn 0.1435 -0.9361 0.3211
vn -0.7536 0.2893 -0.5903
vn -0.7747 0.2965 -0.5584
vn -0.8006 0.3143 -0.5102
vn 0.7954 -0.2746 0.5403
vn 0.8217 -0.2687 0.5026
vn 0.8498 -0.2565 0.4606
vn 0.0331 0.2176 0.9755
vn 0.6054 -0.1577 0.7801
vn -0.8474 0.4278 -0.3145
vn -0.8284 0.3694 -0.4211
vn 0.0638 0.2531 0.9653
vn 0.6356 -0.1577 0.7557
vn -0.7439 0.2918 -0.6013
vn -0.5927 0.1886 -0.7830
vn -0.6175 0.1902 -0.7633
vn -0.7523 0.2814 -0.5957
vn -0.0032 -0.1394 -0.9902
vn 0.8954 -0.3417 0.2855
vn 0.8758 -0.3069 0.3726
vn -0.0104 -0.0901 -0.9959
vn 0.7743 -0.2929 0.5609
vn 0.7730 -0.2824 0.5681
vn 0.0731 0.2332 0.9697
vn 0.6652 -0.1790 0.7249
vn -0.8229 0.3138 -0.4736
vn -0.8041 0.3425 -0.4859
vn 0.1464 0.3566 0.9227
vn 0.6904 -0.2236 0.6880
vn -0.7516 0.2939 -0.5906
vn -0.6341 0.2161 -0.7425
vn -0.6364 0.2693 -0.7229
vn -0.7370 0.3364 -0.5862
vn -0.0378 -0.1217 -0.9918
vn 0.8447 -0.3043 0.4403
vn 0.8069 -0.3515 0.4747
vn -0.0311 -0.0444 -0.9985
vn 0.7680 -0.2924 0.5698
vn 0.7546 -0.3279 0.5685
vn 0.0708 0.4577 0.8863
vn 0.6952 -0.3166 0.6453
vn -0.7503 0.4501 -0.4843
vn -0.6825 0.5548 -0.4757
vn 0.1520 0.6083 0.7790
vn 0.6583 -0.4432 0.6084
vn -0.6941 0.4182 -0.5859
vn -0.6126 0.3562 -0.7056
vn -0.5671 0.4487 -0.6907
vn -0.6381 0.5111 -0.5759
vn 0.2632 0.0896 -0.9606
vn 0.7583 -0.4385 0.4824
vn 0.6886 -0.5493 0.4733
vn -0.0409 -0.2369 -0.9707
vn 0.7149 -0.4055 0.5696
vn 0.6534 -0.5035 0.5652
vn 0.0673 0.6823 0.7280
vn 0.6099 -0.5285 0.5906
vn -0.6245 0.6287 -0.4635
vn -0.5761 0.6855 -0.4452
vn 0.0032 0.7297 0.6837
vn 0.5733 -0.5820 0.5767
vn -0.5839 0.5784 -0.5697
vn -0.5208 0.5272 -0.6714
vn -0.4808 0.5889 -0.6496
vn -0.5388 0.6385 -0.5496
vn 0.1295 -0.3796 -0.9160
vn 0.6026 -0.6467 0.4675
vn 0.5274 -0.7173 0.4554
vn 0.0160 -0.6514 -0.7586
vn 0.5867 -0.5786 0.5666
vn 0.5458 -0.6346 0.5471
vn 0.4922 -0.6151 0.6159
vn -0.0585 0.6292 0.7751
vn -0.0667 0.5134 0.8555
vn 0.5332 -0.5882 0.6081
vn -0.5369 0.7511 -0.3841
vn -0.5536 0.7587 -0.3434
vn -0.5516 0.7742 -0.3104
vn -0.0996 0.3499 0.9315
vn 0.4953 -0.5661 0.6590
vn -0.5276 0.6877 -0.4988
vn -0.5542 0.6809 -0.4787
vn -0.4989 0.6865 -0.5289
vn -0.4326 0.6786 -0.5936
vn -0.4857 0.6097 -0.6263
vn -0.5737 0.6720 -0.4683
vn -0.1313 -0.8246 -0.5502
vn -0.2941 -0.8826 -0.3669
vn 0.4648 -0.7915 0.3969
vn 0.4414 -0.8178 0.3694
vn 0.3756 -0.8600 0.3453
vn -0.3591 -0.8632 -0.3548
vn 0.5323 -0.6764 0.5091
vn 0.5476 -0.6713 0.4995
vn 0.5360 -0.6714 0.5118
vn -0.2336 0.1276 0.9639
vn 0.4124 -0.5399 0.7338
vn -0.4781 0.8213 -0.3113
vn -0.5498 0.6927 -0.4667
vn -0.5337 0.5201 -0.6668
vn -0.4994 -0.8031 -0.3250
vn 0.2698 -0.9019 0.3373
vn 0.4932 -0.6818 0.5403
vn 0.0405 -0.0229 -0.9989
vn 0.9502 -0.2920 -0.1090
vn -0.6316 0.2412 -0.7368
vn -0.8096 0.3417 -0.4774
vn -0.8551 0.5029 0.1262
vn 0.0562 0.2678 0.9618
vn 0.6705 -0.0999 0.7351
vn 0.8638 -0.2664 0.4277
vn -0.5146 0.6760 -0.5275
vn -0.5358 0.7311 -0.4224
vn -0.4535 0.6348 -0.6256
vn 0.0399 0.7237 0.6889
vn 0.5512 -0.6098 0.5694
vn 0.5238 -0.6673 0.5295
vn 0.4759 -0.7642 0.4353
vn -0.0982 -0.7801 -0.6179
s 1
f 1/1/1 2/2/2 3/3/3 4/4/4
f 2/5/2 5/6/5 6/7/6 3/8/3
f 3/8/3 6/7/6 7/9/7 8/10/8
f 4/4/4 3/3/3 8/11/8 9/12/9
f 10/13/10 11/14/11 12/15/12 13/16/13
f 11/17/11 14/18/14 15/19/15 12/20/12
f 12/20/12 15/19/15 16/21/16 17/22/17
f 13/16/13 12/15/12 17/23/17 18/24/18
f 19/25/19 20/26/20 21/27/21 22/28/22
f 20/29/20 23/30/23 24/31/24 21/32/21
f 21/32/21 24/31/24 25/33/25 26/34/26
f 22/28/22 21/27/21 26/35/26 27/36/27
f 28/37/28 29/38/29 30/39/30 31/40/31
f 29/41/29 32/42/32 33/43/33 30/44/30
f 30/44/30 33/43/33 34/45/34 35/46/35
f 31/40/31 30/39/30 35/47/35 36/48/36
f 5/6/5 37/49/37 38/50/38 6/7/6
f 37/49/37 25/33/25 24/31/24 38/50/38
f 38/50/38 24/31/24 23/30/23 39/51/39
f 6/7/6 38/50/38 39/51/39 7/9/7
f 27/36/27 40/52/40 41/53/41 22/28/22
f 40/52/40 1/1/1 4/4/4 41/53/41
f 41/53/41 4/4/4 9/12/9 42/54/42
f 22/28/22 41/53/41 42/54/42 19/25/19
f 27/36/27 26/35/26 43/55/43 44/56/44
f 26/34/26 25/33/25 45/57/45 43/58/43
f 43/58/43 45/57/45 46/59/46 47/60/47
f 44/56/44 43/55/43 47/61/47 48/62/48
f 25/33/25 37/49/37 49/63/49 45/57/45
f 37/49/37 5/6/5 50/64/50 49/63/49
f 49/63/49 50/64/50 51/65/51 52/66/52
f 45/57/45 49/63/49 52/66/52 46/59/46
f 5/6/5 2/5/2 53/67/53 50/64/50
f 2/2/2 1/1/1 54/68/54 53/69/53
f 53/69/53 54/68/54 55/70/55 56/71/56
f 50/64/50 53/67/53 56/72/56 51/65/51
f 1/1/1 40/52/40 57/73/57 54/68/54
f 40/52/40 27/36/27 44/56/44 57/73/57
f 57/73/57 44/56/44 48/62/48 58/74/58
f 54/68/54 57/73/57 58/74/58 55/70/55
f 48/62/48 47/61/47 59/75/59 60/76/60
f 47/60/47 46/59/46 61/77/61 59/78/59
f 59/78/59 61/77/61 62/79/62 63/80/63
f 60/76/60 59/75/59 63/81/63 64/82/64
f 46/59/46 52/66/52 65/83/65 61/77/61
f 52/66/52 51/65/51 66/84/66 65/83/65
f 65/83/65 66/84/66 67/85/67 68/86/68
f 61/77/61 65/83/65 68/86/68 62/79/62
f 51/65/51 56/72/56 69/87/69 66/84/66
f 56/71/56 55/70/55 70/88/70 69/89/69
f 69/89/69 70/88/70 71/90/71 72/91/72
f 66/84/66 69/87/69 72/92/72 67/85/67
f 55/70/55 58/74/58 73/93/73 70/88/70
f 58/74/58 48/62/48 60/76/60 73/93/73
f 73/93/73 60/76/60 64/82/64 74/94/74
f 70/88/70 73/93/73 74/94/74 71/90/71
f 64/82/64 63/81/63 75/95/75 76/96/76
f 63/80/63 62/79/62 77/97/77 75/98/75
f 75/98/75 77/97/77 78/99/78 79/100/79
f 76/96/76 75/95/75 79/101/79 80/102/80
f 62/79/62 68/86/68 81/103/81 77/97/77
f 68/86/68 67/85/67 82/104/82 81/103/81
f 81/103/81 82/104/82 83/105/83 84/106/84
f 77/97/77 81/103/81 84/106/84 78/99/78
f 67/85/67 72/92/72 85/107/85 82/104/82
f 72/91/72 71/90/71 86/108/86 85/109/85
f 85/109/85 86/108/86 87/110/87 88/111/88
f 82/104/82 85/107/85 88/112/88 83/105/83
f 71/90/71 74/94/74 89/113/89 86/108/86
f 74/94/74 64/82/64 76/96/76 89/113/89
f 89/113/89 76/96/76 80/102/80 90/114/90
f 86/108/86 89/113/89 90/114/90 87/110/87
f 80/102/80 79/101/79 91/115/91 92/116/92
f 79/100/79 78/99/78 93/117/93 91/118/91
f 91/118/91 93/117/93 94/119/94 95/120/95
f 92/116/92 91/115/91 95/121/95 96/122/96
f 78/99/78 84/106/84 97/123/97 93/117/93
f 84/106/84 83/105/83 98/124/98 97/123/97
f 97/123/97 98/124/98 99/125/99 100/126/100
f 93/117/93 97/123/97 100/126/100 94/119/94
f 83/105/83 88/112/88 101/127/101 98/124/98
f 88/111/88 87/110/87 102/128/102 101/129/101
f 101/129/101 102/128/102 103/130/103 104/131/104
f 98/124/98 101/127/101 104/132/104 99/125/99
f 87/110/87 90/114/90 105/133/105 102/128/102
f 90/114/90 80/102/80 92/116/92 105/133/105
f 105/133/105 92/116/92 96/122/96 106/134/106
f 102/128/102 105/133/105 106/134/106 103/130/103
f 107/135/107 108/136/108 109/137/109 110/138/110
f 108/139/108 111/140/111 112/141/112 109/142/109
f 109/142/109 112/141/112 113/143/113 114/144/114
f 110/138/110 109/137/109 114/145/114 115/146/115
f 111/140/111 116/147/116 117/148/117 112/141/112
f 116/147/116 118/149/118 119/150/119 117/148/117
f 117/148/117 119/150/119 120/151/120 121/152/121
f 112/141/112 117/148/117 121/152/121 113/143/113
f 118/149/118 122/153/122 123/154/123 119/150/119
f 122/155/122 124/156/124 125/157/125 123/158/123
f 123/158/123 125/157/125 126/159/126 127/160/127
f 119/150/119 123/154/123 127/161/127 120/151/120
f 124/156/124 128/162/128 129/163/129 125/157/125
f 128/162/128 107/135/107 110/138/110 129/163/129
f 129/163/129 110/138/110 115/146/115 130/164/130
f 125/157/125 129/163/129 130/164/130 126/159/126
f 115/146/115 114/145/114 131/165/131 132/166/132
f 114/144/114 113/143/113 133/167/133 131/168/131
f 131/168/131 133/167/133 32/42/32 29/41/29
f 132/166/132 131/165/131 29/38/29 28/37/28
f 113/143/113 121/152/121 134/169/134 133/167/133
f 121/152/121 120/151/120 135/170/135 134/169/134
f 134/169/134 135/170/135 34/45/34 33/43/33
f 133/167/133 134/169/134 33/43/33 32/42/32
f 120/151/120 127/161/127 136/171/136 135/170/135
f 127/160/127 126/159/126 137/172/137 136/173/136
f 136/173/136 137/172/137 36/48/36 35/47/35
f 135/170/135 136/171/136 35/46/35 34/45/34
f 126/159/126 130/164/130 138/174/138 137/172/137
f 130/164/130 115/146/115 132/166/132 138/174/138
f 138/174/138 132/166/132 28/37/28 31/40/31
f 137/172/137 138/174/138 31/40/31 36/48/36
f 9/12/9 8/11/8 139/175/139 140/176/140
f 8/10/8 7/9/7 141/177/141 139/178/139
f 139/178/139 141/177/141 14/18/14 11/17/11
f 140/176/140 139/175/139 11/14/11 10/13/10
f 7/9/7 39/51/39 142/179/142 141/177/141
f 39/51/39 23/30/23 143/180/143 142/179/142
f 142/179/142 143/180/143 16/21/16 15/19/15
f 141/177/141 142/179/142 15/19/15 14/18/14
f 23/30/23 20/29/20 144/181/144 143/180/143
f 20/26/20 19/25/19 145/182/145 144/183/144
f 144/183/144 145/182/145 18/24/18 17/23/17
f 143/180/143 144/181/144 17/22/17 16/21/16
f 19/25/19 42/54/42 146/184/146 145/182/145
f 42/54/42 9/12/9 140/176/140 146/184/146
f 146/184/146 140/176/140 10/13/10 13/16/13
f 145/182/145 146/184/146 13/16/13 18/24/18
f 94/119/94 100/126/100 147/185/147 148/186/148
f 100/126/100 99/125/99 149/187/149 147/185/147
f 147/185/147 149/187/149 118/149/118 116/147/116
f 148/186/148 147/185/147 116/147/116 111/140/111
f 96/122/96 95/121/95 150/188/150 151/189/151
f 95/120/95 94/119/94 148/186/148 150/190/150
f 150/190/150 148/186/148 111/140/111 108/139/108
f 151/189/151 150/188/150 108/136/108 107/135/107
f 103/130/103 106/134/106 152/191/152 153/192/153
f 106/134/106 96/122/96 151/189/151 152/191/152
f 152/191/152 151/189/151 107/135/107 128/162/128
f 153/192/153 152/191/152 128/162/128 124/156/124
f 99/125/99 104/132/104 154/193/154 149/187/149
f 104/131/104 103/130/103 153/192/153 154/194/154
f 154/194/154 153/192/153 124/156/124 122/155/122
f 149/187/149 154/193/154 122/153/122 118/149/118
